#tb 0: 1/90000
0,          0,          0,        0,    34944, 0xe33671a4
0,       6000,       6000,        0,    34944, 0xe33671a4
0,      12000,      12000,        0,    34944, 0xe33671a4
0,      18000,      18000,        0,    34944, 0xe33671a4
0,      24000,      24000,        0,    34944, 0xe33671a4
0,      30000,      30000,        0,    34944, 0xe33671a4
0,      36000,      36000,        0,    34944, 0xe33671a4
0,      42000,      42000,        0,    34944, 0xe33671a4
0,      48000,      48000,        0,    34944, 0xe33671a4
0,      54000,      54000,        0,    34944, 0xe33671a4
0,      60000,      60000,        0,    34944, 0xe33671a4
0,      66000,      66000,        0,    34944, 0xe33671a4
0,      72000,      72000,        0,    34944, 0xe33671a4
0,      78000,      78000,        0,    34944, 0xe33671a4
0,      84000,      84000,        0,    34944, 0xe33671a4
0,      90000,      90000,        0,    34944, 0x63196b41
0,      96000,      96000,        0,    34944, 0x308d6f10
0,     102000,     102000,        0,    34944, 0x86026ced
0,     108000,     108000,        0,    34944, 0xaa6a6bc9
0,     114000,     114000,        0,    34944, 0x58276ee3
0,     120000,     120000,        0,    34944, 0x402d70c2
0,     126000,     126000,        0,    34944, 0x948d74bf
0,     132000,     132000,        0,    34944, 0x3d31759c
0,     138000,     138000,        0,    34944, 0x638c734e
0,     144000,     144000,        0,    34944, 0xe218768a
0,     150000,     150000,        0,    34944, 0xed6678ff
0,     156000,     156000,        0,    34944, 0x381b7dda
0,     162000,     162000,        0,    34944, 0x216680e7
0,     168000,     168000,        0,    34944, 0xaca5810f
0,     174000,     174000,        0,    34944, 0xf70b81eb
0,     180000,     180000,        0,    34944, 0x3675858b
0,     186000,     186000,        0,    34944, 0xa51188c3
0,     192000,     192000,        0,    34944, 0x3a848bf1
0,     198000,     198000,        0,    34944, 0x67608d4d
0,     204000,     204000,        0,    34944, 0xafe49165
0,     210000,     210000,        0,    34944, 0x7e8a94a7
0,     216000,     216000,        0,    34944, 0x3b889432
0,     222000,     222000,        0,    34944, 0x97e89623
0,     228000,     228000,        0,    34944, 0x07819793
0,     234000,     234000,        0,    34944, 0xdac39b87
0,     240000,     240000,        0,    34944, 0x4d8c9d93
0,     246000,     246000,        0,    34944, 0xcf009fa7
0,     252000,     252000,        0,    34944, 0x2f109f6e
0,     258000,     258000,        0,    34944, 0xcedda4eb
0,     264000,     264000,        0,    34944, 0xfe89a6df
0,     270000,     270000,        0,    34944, 0x195ea7a9
0,     276000,     276000,        0,    34944, 0x9287ab92
0,     282000,     282000,        0,    34944, 0x6d21af54
0,     288000,     288000,        0,    34944, 0xd627b28b
0,     294000,     294000,        0,    34944, 0x3ad5b6fd
0,     300000,     300000,        0,    34944, 0x5101b64d
0,     306000,     306000,        0,    34944, 0xb968b8ca
0,     312000,     312000,        0,    34944, 0xa105b74a
0,     318000,     318000,        0,    34944, 0xc056bdd6
0,     324000,     324000,        0,    34944, 0xec7fc1d9
0,     330000,     330000,        0,    34944, 0x92c3c3e0
0,     336000,     336000,        0,    34944, 0x9bffc45c
0,     342000,     342000,        0,    34944, 0x5aabca4b
0,     348000,     348000,        0,    34944, 0xcbdacb26
0,     354000,     354000,        0,    34944, 0xed6cce3f
0,     360000,     360000,        0,    34944, 0xcc61cfb8
0,     366000,     366000,        0,    34944, 0x7a97d427
0,     372000,     372000,        0,    34944, 0x7cdbd5ec
0,     378000,     378000,        0,    34944, 0x5851d9c4
0,     384000,     384000,        0,    34944, 0x69d5dd1d
0,     390000,     390000,        0,    34944, 0xdf30dcf4
0,     396000,     396000,        0,    34944, 0x2359e084
0,     402000,     402000,        0,    34944, 0xe0bae491
0,     408000,     408000,        0,    34944, 0xa716e4fd
0,     414000,     414000,        0,    34944, 0xe48aeaf4
0,     420000,     420000,        0,    34944, 0x0a0deb21
0,     426000,     426000,        0,    34944, 0xe8a56e12
0,     432000,     432000,        0,    34944, 0x0d72c98e
0,     438000,     438000,        0,    34944, 0x71a7bb9d
0,     444000,     444000,        0,    34944, 0xc0c8c108
0,     450000,     450000,        0,    34944, 0x1d1fc3ba
0,     456000,     456000,        0,    34944, 0xebcfc67f
0,     462000,     462000,        0,    34944, 0x2921cb5b
0,     468000,     468000,        0,    34944, 0x793ed099
0,     474000,     474000,        0,    34944, 0xefebd9e8
0,     480000,     480000,        0,    34944, 0x163c2330
0,     486000,     486000,        0,    34944, 0x35155672
0,     492000,     492000,        0,    34944, 0x05474e2e
0,     498000,     498000,        0,    34944, 0x9433542f
0,     504000,     504000,        0,    34944, 0x777d5a13
0,     510000,     510000,        0,    34944, 0x87526776
0,     516000,     516000,        0,    34944, 0x4c3c72c1
0,     522000,     522000,        0,    34944, 0x70407b87
0,     528000,     528000,        0,    34944, 0x2358861d
0,     534000,     534000,        0,    34944, 0xec61923f
0,     540000,     540000,        0,    34944, 0x0bb2a0d4
0,     546000,     546000,        0,    34944, 0x6b6d8624
0,     552000,     552000,        0,    34944, 0x624761ec
0,     558000,     558000,        0,    34944, 0xff23b926
0,     564000,     564000,        0,    34944, 0x07fc7ca5
0,     570000,     570000,        0,    34944, 0xa8d3ffda
0,     576000,     576000,        0,    34944, 0xa2d31265
0,     582000,     582000,        0,    34944, 0x5e58225e
0,     588000,     588000,        0,    34944, 0x284b2fb0
0,     594000,     594000,        0,    34944, 0x205b3cb1
0,     600000,     600000,        0,    34944, 0x3fa64a09
0,     606000,     606000,        0,    34944, 0xa5de5097
0,     612000,     612000,        0,    34944, 0x00686cea
0,     618000,     618000,        0,    34944, 0x465a8282
0,     624000,     624000,        0,    34944, 0x4ceb8189
0,     630000,     630000,        0,    34944, 0x14698509
0,     636000,     636000,        0,    34944, 0x232c830d
0,     642000,     642000,        0,    34944, 0x0739807c
0,     648000,     648000,        0,    34944, 0x83b0861e
0,     654000,     654000,        0,    34944, 0xbdc094b1
0,     660000,     660000,        0,    34944, 0xc4c0a605
0,     666000,     666000,        0,    34944, 0x8376b059
0,     672000,     672000,        0,    34944, 0x2035b939
0,     678000,     678000,        0,    34944, 0xb6bfc812
0,     684000,     684000,        0,    34944, 0xc5d4d5c4
0,     690000,     690000,        0,    34944, 0x492c954e
0,     696000,     696000,        0,    34944, 0xd23f0dcc
0,     702000,     702000,        0,    34944, 0x22d7ff6c
0,     708000,     708000,        0,    34944, 0xd08b4168
0,     714000,     714000,        0,    34944, 0xa82e4062
0,     720000,     720000,        0,    34944, 0xcc4f2f31
0,     726000,     726000,        0,    34944, 0x964b0307
0,     732000,     732000,        0,    34944, 0xe8130606
0,     738000,     738000,        0,    34944, 0x5fb744bf
0,     744000,     744000,        0,    34944, 0x1546a88b
0,     750000,     750000,        0,    34944, 0xe6e4d94d
0,     756000,     756000,        0,    34944, 0x8d1ea97e
0,     762000,     762000,        0,    34944, 0x3bb1fb55
0,     768000,     768000,        0,    34944, 0x3c37e9cc
0,     774000,     774000,        0,    34944, 0xe2d22521
0,     780000,     780000,        0,    34944, 0x7c0ec8cc
0,     786000,     786000,        0,    34944, 0x7c2dc956
0,     792000,     792000,        0,    34944, 0x7fe3c263
0,     798000,     798000,        0,    34944, 0x9a65b813
0,     804000,     804000,        0,    34944, 0x7ea7cb14
0,     810000,     810000,        0,    34944, 0x31ded64e
0,     816000,     816000,        0,    34944, 0x50f30ad1
0,     822000,     822000,        0,    34944, 0x12eac45c
0,     828000,     828000,        0,    34944, 0x984b6335
0,     834000,     834000,        0,    34944, 0x3b9b02f0
0,     840000,     840000,        0,    34944, 0x4629d2a4
0,     846000,     846000,        0,    34944, 0x38687e89
0,     852000,     852000,        0,    34944, 0xb76620fe
0,     858000,     858000,        0,    34944, 0x66347155
0,     864000,     864000,        0,    34944, 0x6e6bc297
0,     870000,     870000,        0,    34944, 0x452a653a
0,     876000,     876000,        0,    34944, 0x8c8a0683
0,     882000,     882000,        0,    34944, 0xaf5d7c2d
0,     888000,     888000,        0,    34944, 0x3064a7e1
0,     894000,     894000,        0,    34944, 0xc0657fc4
0,     900000,     900000,        0,    34944, 0x1f129266
0,     906000,     906000,        0,    34944, 0x35adedfb
0,     912000,     912000,        0,    34944, 0x40a3db0d
0,     918000,     918000,        0,    34944, 0x87bebb37
0,     924000,     924000,        0,    34944, 0x04d7ffed
0,     930000,     930000,        0,    34944, 0x9bde3180
0,     936000,     936000,        0,    34944, 0xc35c25bd
0,     942000,     942000,        0,    34944, 0x820bf4bb
0,     948000,     948000,        0,    34944, 0x876163ef
0,     954000,     954000,        0,    34944, 0x3ab6dac0
0,     960000,     960000,        0,    34944, 0x69a9ef73
0,     966000,     966000,        0,    34944, 0x0df3813c
0,     972000,     972000,        0,    34944, 0x1bba0947
0,     978000,     978000,        0,    34944, 0x0b7883d4
0,     984000,     984000,        0,    34944, 0xa9972f7e
0,     990000,     990000,        0,    34944, 0x603d08fe
0,     996000,     996000,        0,    34944, 0x05f4f111
0,    1002000,    1002000,        0,    34944, 0xb24fdb42
0,    1008000,    1008000,        0,    34944, 0xfe2ad344
0,    1014000,    1014000,        0,    34944, 0xda4bcb8f
0,    1020000,    1020000,        0,    34944, 0xd28aca6b
0,    1026000,    1026000,        0,    34944, 0x9486c260
0,    1032000,    1032000,        0,    34944, 0xad9fc04d
0,    1038000,    1038000,        0,    34944, 0x9333c0ca
0,    1044000,    1044000,        0,    34944, 0x96e9c226
0,    1050000,    1050000,        0,    34944, 0x3e89bd6f
0,    1056000,    1056000,        0,    34944, 0x7a2dbd32
0,    1062000,    1062000,        0,    34944, 0xe578ba53
0,    1068000,    1068000,        0,    34944, 0xb77ebab1
0,    1074000,    1074000,        0,    34944, 0xd8bfbcb1
0,    1080000,    1080000,        0,    34944, 0x15d9bc97
0,    1086000,    1086000,        0,    34944, 0x09c3b9f0
0,    1092000,    1092000,        0,    34944, 0xd8c8b944
0,    1098000,    1098000,        0,    34944, 0x2c2fb996
0,    1104000,    1104000,        0,    34944, 0xd7a8b7e7
0,    1110000,    1110000,        0,    34944, 0xce34b843
0,    1116000,    1116000,        0,    34944, 0xba69e9fd
0,    1122000,    1122000,        0,    34944, 0x1b3f1adc
0,    1128000,    1128000,        0,    34944, 0x48f515aa
0,    1134000,    1134000,        0,    34944, 0x864e12bb
0,    1140000,    1140000,        0,    34944, 0xca571996
0,    1146000,    1146000,        0,    34944, 0x1d5a1af0
0,    1152000,    1152000,        0,    34944, 0x3d1e171f
0,    1158000,    1158000,        0,    34944, 0xb57417ca
0,    1164000,    1164000,        0,    34944, 0x6e6d1e9d
0,    1170000,    1170000,        0,    34944, 0xc9971899
0,    1176000,    1176000,        0,    34944, 0xe0b112c8
0,    1182000,    1182000,        0,    34944, 0x121b0cd9
0,    1188000,    1188000,        0,    34944, 0x418e0eff
0,    1194000,    1194000,        0,    34944, 0x9e1b07d8
0,    1200000,    1200000,        0,    34944, 0x5590064a
0,    1206000,    1206000,        0,    34944, 0x7a170b14
0,    1212000,    1212000,        0,    34944, 0xf25709f0
0,    1218000,    1218000,        0,    34944, 0x94fa099a
0,    1224000,    1224000,        0,    34944, 0x081e06ae
0,    1230000,    1230000,        0,    34944, 0xcfc40417
0,    1236000,    1236000,        0,    34944, 0xed33096f
0,    1242000,    1242000,        0,    34944, 0xd73a07e2
0,    1248000,    1248000,        0,    34944, 0xc512077d
0,    1254000,    1254000,        0,    34944, 0x27d7021d
0,    1260000,    1260000,        0,    34944, 0xab59fd20
0,    1266000,    1266000,        0,    34944, 0xcc2400b7
0,    1272000,    1272000,        0,    34944, 0xcb3bfb99
0,    1278000,    1278000,        0,    34944, 0x0974fb1a
0,    1284000,    1284000,        0,    34944, 0xef79f8ba
0,    1290000,    1290000,        0,    34944, 0xf932f3a2
0,    1296000,    1296000,        0,    34944, 0xa32df1bc
0,    1302000,    1302000,        0,    34944, 0xdbe0f532
0,    1308000,    1308000,        0,    34944, 0x234cf142
0,    1314000,    1314000,        0,    34944, 0xe68befd0
0,    1320000,    1320000,        0,    34944, 0xe4e7ee45
0,    1326000,    1326000,        0,    34944, 0x0283eff1
0,    1332000,    1332000,        0,    34944, 0xc8d3f6db
0,    1338000,    1338000,        0,    34944, 0x0aa6ee88
0,    1344000,    1344000,        0,    34944, 0xcc3de527
0,    1350000,    1350000,        0,    34944, 0x9db0ebef
0,    1356000,    1356000,        0,    34944, 0xa207e9db
0,    1362000,    1362000,        0,    34944, 0x35b3e74a
0,    1368000,    1368000,        0,    34944, 0x1988e848
0,    1374000,    1374000,        0,    34944, 0x727de73c
0,    1380000,    1380000,        0,    34944, 0x05d5e709
0,    1386000,    1386000,        0,    34944, 0x3214e4b2
0,    1392000,    1392000,        0,    34944, 0xed85e0a9
0,    1398000,    1398000,        0,    34944, 0xf6c9e100
0,    1404000,    1404000,        0,    34944, 0x57a8dbaf
0,    1410000,    1410000,        0,    34944, 0xc75fdf41
0,    1416000,    1416000,        0,    34944, 0x736fde24
0,    1422000,    1422000,        0,    34944, 0x8d4bde80
0,    1428000,    1428000,        0,    34944, 0x3220dc86
0,    1434000,    1434000,        0,    34944, 0xe498da85
0,    1440000,    1440000,        0,    34944, 0x0655daed
0,    1446000,    1446000,        0,    34944, 0xb22ad874
0,    1452000,    1452000,        0,    34944, 0x8198d411
0,    1458000,    1458000,        0,    34944, 0xd0d2d557
0,    1464000,    1464000,        0,    34944, 0xd740d1ff
0,    1470000,    1470000,        0,    34944, 0x2783d00e
0,    1476000,    1476000,        0,    34944, 0x7abdcd6b
0,    1482000,    1482000,        0,    34944, 0x2e47d1eb
0,    1488000,    1488000,        0,    34944, 0xfe1bcf60
0,    1494000,    1494000,        0,    34944, 0xf0f0d5bb
0,    1500000,    1500000,        0,    34944, 0x9af7d581
0,    1506000,    1506000,        0,    34944, 0xb325ca3d
0,    1512000,    1512000,        0,    34944, 0xd88abfbd
0,    1518000,    1518000,        0,    34944, 0xf2bab746
0,    1524000,    1524000,        0,    34944, 0xac44a7dd
0,    1530000,    1530000,        0,    34944, 0x609e9ea3
0,    1536000,    1536000,        0,    34944, 0xa39993b9
0,    1542000,    1542000,        0,    34944, 0x9c948911
0,    1548000,    1548000,        0,    34944, 0x72f8822d
0,    1554000,    1554000,        0,    34944, 0x7f3f7a8c
0,    1560000,    1560000,        0,    34944, 0x7ab475f9
0,    1566000,    1566000,        0,    34944, 0x536f73aa
0,    1572000,    1572000,        0,    34944, 0x86cb71e5
0,    1578000,    1578000,        0,    34944, 0x17157186
0,    1584000,    1584000,        0,    34944, 0xe33671a4
0,    1590000,    1590000,        0,    34944, 0xe33671a4
0,    1596000,    1596000,        0,    34944, 0xe33671a4
0,    1602000,    1602000,        0,    34944, 0xe33671a4
0,    1608000,    1608000,        0,    34944, 0xe33671a4
0,    1614000,    1614000,        0,    34944, 0xe33671a4
0,    1620000,    1620000,        0,    34944, 0xe33671a4
0,    1626000,    1626000,        0,    34944, 0xe33671a4
0,    1632000,    1632000,        0,    34944, 0xe33671a4
0,    1638000,    1638000,        0,    34944, 0xe33671a4
0,    1644000,    1644000,        0,    34944, 0xe33671a4
0,    1650000,    1650000,        0,    34944, 0xe33671a4
0,    1656000,    1656000,        0,    34944, 0xe33671a4
0,    1662000,    1662000,        0,    34944, 0xe33671a4
